/* XPM */
static char * character_rogue_16x16_1_xpm[] = {
"16 16 90 1",
" 	c None",
".	c #294731",
"+	c #4E4E4E",
"@	c #3A3A3A",
"#	c #102616",
"$	c #66CF6E",
"%	c #39443D",
"&	c #4C4C4C",
"*	c #7B797E",
"=	c #74B35D",
"-	c #8CDC68",
";	c #3A513F",
">	c #302E1B",
",	c #401E16",
"'	c #501300",
")	c #CA470B",
"!	c #002E4C",
"~	c #39321D",
"{	c #104429",
"]	c #6DB556",
"^	c #60CF6F",
"/	c #40744B",
"(	c #3D4E40",
"_	c #4A2A16",
":	c #8D4113",
"<	c #002336",
"[	c #003455",
"}	c #382318",
"|	c #FB7021",
"1	c #5E2B11",
"2	c #461905",
"3	c #445E4A",
"4	c #593A25",
"5	c #803509",
"6	c #34312C",
"7	c #865E39",
"8	c #783611",
"9	c #803F16",
"0	c #6F6F7A",
"a	c #C5C7B5",
"b	c #000000",
"c	c #796D3F",
"d	c #1E0200",
"e	c #94400F",
"f	c #8F5A31",
"g	c #975E35",
"h	c #4E342D",
"i	c #F5CA76",
"j	c #DEA358",
"k	c #3A1E18",
"l	c #476E3A",
"m	c #B76839",
"n	c #7F421C",
"o	c #745335",
"p	c #358A54",
"q	c #68C165",
"r	c #204B30",
"s	c #4A3325",
"t	c #206136",
"u	c #B88950",
"v	c #5E3824",
"w	c #8AEC73",
"x	c #2C6A40",
"y	c #3E9255",
"z	c #5C7D48",
"A	c #27271E",
"B	c #3E281B",
"C	c #1B0B03",
"D	c #635437",
"E	c #152A1A",
"F	c #3A4A34",
"G	c #366742",
"H	c #64BE65",
"I	c #4D4D32",
"J	c #6D714F",
"K	c #5EB761",
"L	c #333A2C",
"M	c #67D370",
"N	c #81E470",
"O	c #18070C",
"P	c #000807",
"Q	c #C2FF79",
"R	c #253B2B",
"S	c #5F351A",
"T	c #351D18",
"U	c #522D16",
"V	c #120000",
"W	c #1A0C05",
"X	c #825D31",
"Y	c #392915",
"        .       ",
"     +@#$%      ",
"     &*=-;      ",
"     >,')       ",
"    !~{]^/( _:  ",
"   <[}|123 456  ",
"    7890abcde   ",
"    fghijklmn   ",
"    opqrstuv    ",
"     wxyzAB     ",
"    CDEFGH      ",
"    IJKLMNO     ",
"     PQRST      ",
"    bUVbWXb     ",
"   bbYYbbbbb    ",
"    bbbbbbb     "};
