/* XPM */
static char * character_rogue_32x32_1_xpm[] = {
"32 32 17 1",
" 	c None",
".	c #404040",
"+	c #000000",
"@	c #4AAD63",
"#	c #F0F0F0",
"$	c #A5EF6B",
"%	c #396B42",
"&	c #945229",
"*	c #CF4D02",
"=	c #393129",
"-	c #6D2901",
";	c #028BDA",
">	c #FEA877",
",	c #FD7F35",
"'	c #CACACE",
")	c #DE9C52",
"!	c #F7EF9C",
"                 .              ",
"           .    +@.             ",
"          + .  +@@.             ",
"          +#. +@@$%.            ",
"          +# .@@$$%.            ",
"          + #.&$$%%.            ",
"          ++ .*&**.             ",
"         +&%&+++&&+      +=     ",
"         +&%%@@$$@%..   =-*=    ",
"     ++ ;++++++$@@@%%. =-=*=    ",
"     ;+++;++>*,+++... =+*===    ",
"      ;+ ++>**+&&&=@ =,=*+ =    ",
"       +==+,*='+='++=,-+*+      ",
"       =&)=*,='=!'+=@= -,-      ",
"       =&&=,>=!!!)&=%=-,,-      ",
"        =))==+&))&=+$+=>=       ",
"        =)=@@%+===@++&+>-       ",
"         =@@$@%@&%@+)!=-        ",
"         =@$@%%%@@=+==-         ",
"         +$@+@@@&=%==-          ",
"        ++=%++===%@%+           ",
"        +&)=%%%%%@$@+           ",
"        +!!=%@%=@@$@+           ",
"         +=%@$%=@$$@=           ",
"          +%$$@=++==            ",
"          ++$$=+)&&++           ",
"        +++&+++++&))++          ",
"       ++++&&++++++++++         ",
"       ++++))++++++++++         ",
"       ++++++++++++++++         ",
"        ++++++++++++++          ",
"           ++++++++             "};
