/* XPM */
static char * tilegrass2_16x16_xpm[] = {
"16 16 8 1",
" 	c None",
".	c #406030",
"+	c #688038",
"@	c #2B471D",
"#	c #80A820",
"$	c #E0F830",
"%	c #C0B060",
"&	c #908040",
".+.@.+.+@.+.@.+.",
".+#.+#.+@.+##.+.",
"..##+.#+.+.#+.+#",
"+..#@.+#.#.#$%.+",
".+.+#@.#.+.#%&..",
".@.$$@.+#.@+.@+.",
"+@@$%..+#.@@.@+.",
"++.@@+@..@.@@...",
"...#.+.@.+..@.#+",
"+..+#.@@@..#+.++",
"+++++.+++.++.+.@",
".+..+#++.##+.+.@",
"..@..+.#.@$%..#+",
"+#.@@@++.@%&@.+.",
".+.+..+..@+@.++.",
"..@.+.+.@+.+...@"};
