/* XPM */
static char * tilegrass1_x16x16_xpm[] = {
"16 16 5 1",
" 	c None",
".	c #406030",
"+	c #688038",
"@	c #2B471D",
"#	c #80A820",
".+.@.+.+@.+.@.+.",
".++.#+.+@.+#..#.",
"..+.+....+.+.++#",
"+.@...++.#..@..+",
".+.+@.+..+..@...",
".@.+@..@..@+..+.",
"+@@...+.#.@#.++.",
"++.#.#+.+#.+....",
"...+.+.@.+..@.#+",
"+.+.+.@@@...@#++",
"+#+++.#++.+#.+.@",
".+.#+#+.++.+#+.@",
"..@.#+...+..#.#+",
"+#.++.#+@.+.+.+.",
".+.+..+.+@+#.++.",
"..@.+.+.++.+...@"};
